# xmcd
# 
# Track frame offsets:
#     182
#     12557
#     23320
#     38757
#     50482
#     62770
#     75907
#     88870
#     103332
#     116682
#     130357
#     144732
#     159777
#     174665
#     187650
#     200232
#     214575
#     228032
# 
# Disc length: 3209
# 
# Revision: 1
# Processed by: cddbd v1.5.2PL0 Copyright (c) Steve Scherf et al.
# Submitted via: fre:ac v1.0.27
# 
DISCID=ea0c8712
DTITLE=Big Joe Williams - Big Joe Williams
DYEAR=0
DGENRE=Jazz
TTITLE0=Eula Mae
TTITLE1=King's highway
TTITLE2=Baby please don't go
TTITLE3=Baby left town
TTITLE4=Peach orchard mama
TTITLE5=Brother James
TTITLE6=Crawlin' king snake
TTITLE7=Break'em on down
TTITLE8=Rootin' ground hog
TTITLE9=I know you gonna miss me
TTITLE10=Someday baby
TTITLE11=Wild cow blue
TTITLE12=Highway 49
TTITLE13=Going back home
TTITLE14=I'm getting wild about her
TTITLE15=Stephfather blues
TTITLE16=Meet me around the corner
TTITLE17=Please don't go
EXTD=
EXTT0=
EXTT1=
EXTT2=
EXTT3=
EXTT4=
EXTT5=
EXTT6=
EXTT7=
EXTT8=
EXTT9=
EXTT10=
EXTT11=
EXTT12=
EXTT13=
EXTT14=
EXTT15=
EXTT16=
EXTT17=
PLAYORDER=
